<?xml version="1.0" encoding="utf-8"?>
<!-- Generator: Adobe Illustrator 26.3.1, SVG Export Plug-In . SVG Version: 6.00 Build 0)  -->
<svg version="1.1" id="Layer_1" xmlns="http://www.w3.org/2000/svg" xmlns:xlink="http://www.w3.org/1999/xlink" x="0px" y="0px"
	 viewBox="0 0 500.83 92.25" style="enable-background:new 0 0 500.83 92.25;" xml:space="preserve">
<style type="text/css">
	.st0{clip-path:url(#SVGID_00000171683367640180776440000009421832133591299997_);}
	.st1{fill:#343C40;}
	.st2{fill:#1ED760;}
	.st3{fill:#231F20;}
	
		.st4{clip-path:url(#SVGID_00000107568113295903618840000007307197566512443564_);fill:url(#SVGID_00000066506698945883720940000016438445391016338365_);}
	.st5{fill:#FAB911;}
	.st6{fill:#2D64AD;}
	.st7{fill:#527BBD;}
	.st8{fill:#E84436;}
	.st9{fill:#34A953;}
	.st10{fill:none;}
	.st11{fill:#3D4043;}
</style>
<g>
	<g>
		<path class="st5" d="M40.27,29.38v33.45h11.5V29.38H40.27z"/>
		<circle class="st6" cx="5.77" cy="42.97" r="5.77"/>
		<circle class="st6" cx="5.77" cy="49.24" r="5.77"/>
		<path class="st6" d="M0.04,42.97h11.5v6.27H0.04V42.97z"/>
		<circle class="st7" cx="86.26" cy="49.24" r="5.77"/>
		<circle class="st7" cx="86.26" cy="42.97" r="5.77"/>
		<path class="st7" d="M80.53,42.97h11.5v6.27h-11.5V42.97L80.53,42.97z"/>
		<circle class="st8" cx="25.63" cy="61.78" r="5.77"/>
		<circle class="st8" cx="25.63" cy="68.05" r="5.77"/>
		<path class="st8" d="M19.86,61.78h11.5v6.27h-11.5V61.78z"/>
		<circle class="st8" cx="25.63" cy="24.15" r="5.77"/>
		<circle class="st8" cx="25.63" cy="44.56" r="5.77"/>
		<path class="st8" d="M19.86,24.15h11.5v20.53h-11.5V24.15z"/>
		<circle class="st9" cx="66.4" cy="30.42" r="5.77"/>
		<circle class="st9" cx="66.4" cy="24.15" r="5.77"/>
		<path class="st9" d="M60.67,24.15h11.5v6.27h-11.5V24.15z"/>
		<circle class="st5" cx="46.04" cy="12.15" r="5.77"/>
		<circle class="st5" cx="46.04" cy="5.88" r="5.77"/>
		<path class="st5" d="M40.27,5.88h11.5v6.27h-11.5V5.88z"/>
		<circle class="st5" cx="46.04" cy="86.37" r="5.77"/>
		<circle class="st5" cx="46.04" cy="80.1" r="5.77"/>
		<path class="st5" d="M40.27,80.1h11.5v6.27h-11.5V80.1z"/>
		<circle class="st9" cx="66.4" cy="68.05" r="5.77"/>
		<circle class="st9" cx="66.4" cy="47.69" r="5.77"/>
		<path class="st9" d="M60.67,47.69h11.5V68.1h-11.5V47.69z"/>
		<circle class="st5" cx="46.04" cy="29.38" r="5.77"/>
		<circle class="st5" cx="46.04" cy="62.83" r="5.77"/>
	</g>
	<g>
		<path class="st10" d="M109.85,16.04h390.99v60.17H109.85V16.04z"/>
		<path class="st11" d="M302.81,61.15h-4.89v-38.3h13.05c3.22,0,6.02,1.09,8.4,3.26c2.38,2.13,3.56,4.85,3.56,8.15
			c0,3.26-1.17,5.98-3.56,8.15c-2.29,2.11-5.29,3.26-8.4,3.22h-8.15L302.81,61.15L302.81,61.15z M302.81,40.96h8.24
			c2.09,0,3.76-0.71,5.02-2.09c1.21-1.42,1.84-2.93,1.84-4.6c0-1.67-0.63-3.22-1.88-4.6c-1.25-1.42-2.93-2.09-4.98-2.09h-8.24V40.96
			z M327.02,38.12c2.51-2.68,5.73-4.01,9.66-4.01c3.93,0,7.15,1.34,9.7,3.97c2.51,2.68,3.76,5.98,3.76,9.99
			c0,3.97-1.25,7.32-3.76,9.95c-2.51,2.68-5.77,3.97-9.7,3.97c-3.93,0-7.11-1.3-9.66-3.97c-2.51-2.63-3.81-5.98-3.81-9.95
			c0-4.01,1.25-7.32,3.76-9.95L327.02,38.12L327.02,38.12z M330.66,54.97c3.14,3.32,8.38,3.48,11.7,0.34
			c0.12-0.11,0.23-0.22,0.34-0.34c1.67-1.76,2.51-4.06,2.51-6.9c0-2.84-0.84-5.14-2.51-6.9c-1.67-1.67-3.68-2.59-6.02-2.59
			c-2.3,0-4.31,0.88-6.02,2.59c-1.67,1.76-2.51,4.06-2.51,6.9C328.15,50.91,328.98,53.21,330.66,54.97L330.66,54.97z M364.98,61.99
			c-3.35,0-6.27-1.34-8.78-3.97c-2.47-2.71-3.79-6.28-3.68-9.95c0-3.97,1.25-7.27,3.68-9.95c3.51-4.11,9.4-5.24,14.18-2.72
			c1.59,0.84,2.76,1.92,3.56,3.18h0.21l-0.21-3.64V22.85h4.89v38.3h-4.68v-3.64h-0.21c-0.84,1.25-1.96,2.34-3.56,3.22
			C368.79,61.57,366.99,61.99,364.98,61.99L364.98,61.99z M365.82,57.52c2.3,0,4.27-0.84,5.85-2.55c1.67-1.71,2.47-4.02,2.47-6.9
			c0-2.93-0.84-5.18-2.42-6.9c-1.67-1.71-3.6-2.59-5.94-2.59c-2.26,0-4.22,0.84-5.85,2.59c-1.67,1.71-2.51,4.01-2.51,6.86
			c0,2.89,0.84,5.19,2.51,6.9c1.63,1.71,3.6,2.59,5.85,2.59H365.82z M395.93,61.99c-3.93,0-7.15-1.3-9.7-3.97
			c-2.51-2.63-3.76-5.98-3.76-9.95c0-4.01,1.25-7.32,3.76-9.99c2.51-2.63,5.77-3.97,9.7-3.97c5.04-0.19,9.65,2.83,11.5,7.53
			l-4.52,1.88c-1.06-3.1-4.05-5.11-7.32-4.93c-2.17,0-4.1,0.92-5.77,2.68c-1.67,1.8-2.47,4.06-2.47,6.81c0,2.72,0.84,5.02,2.51,6.77
			c1.67,1.8,3.55,2.68,5.73,2.68c3.68,0,6.19-1.67,7.61-4.93l4.39,1.88C405.67,59.17,401.01,62.18,395.93,61.99L395.93,61.99z
			 M419.26,61.99c-2.8,0-5.14-0.79-6.98-2.38c-1.86-1.58-2.89-3.92-2.8-6.36c0-2.84,1.09-5.1,3.3-6.69
			c2.39-1.69,5.27-2.56,8.19-2.47c2.89,0,5.23,0.54,7.11,1.59v-0.75c0-1.92-0.67-3.43-2.01-4.6c-1.34-1.17-3.07-1.8-4.85-1.76
			c-1.42,0-2.72,0.33-3.89,1.04c-1.17,0.67-1.96,1.59-2.38,2.76l-4.47-1.92c0.58-1.55,1.8-3.01,3.6-4.35
			c1.76-1.34,4.1-2.01,7.02-2.01c3.34,0,6.15,0.96,8.36,2.93c2.21,1.97,3.35,4.72,3.35,8.28v15.85h-4.73v-3.64h-0.21
			c-1.87,2.94-5.17,4.66-8.66,4.48L419.26,61.99L419.26,61.99L419.26,61.99z M420.05,57.52c2.01,0,3.85-0.75,5.52-2.26
			c1.67-1.55,2.51-3.35,2.51-5.39c-1.42-1.13-3.51-1.67-6.27-1.67c-2.38,0-4.18,0.5-5.44,1.5c-1.17,1.04-1.8,2.26-1.8,3.64
			c0,1.3,0.58,2.3,1.67,3.05c1.09,0.75,2.38,1.13,3.76,1.13L420.05,57.52L420.05,57.52z M447.14,61.99
			c-5.01,0.19-9.59-2.82-11.41-7.48l4.39-1.8c1.38,3.26,3.76,4.94,7.11,4.94c1.5,0,2.76-0.38,3.76-1.05
			c0.92-0.58,1.47-1.59,1.46-2.68c0-1.67-1.21-2.84-3.6-3.47l-5.27-1.25c-1.75-0.47-3.38-1.31-4.77-2.47
			c-1.48-1.15-2.32-2.94-2.26-4.81c0-2.34,1.04-4.18,3.09-5.64c2.14-1.47,4.68-2.23,7.27-2.17c2.34,0,4.39,0.54,6.23,1.59
			c1.8,1.04,3.1,2.51,3.89,4.52l-4.27,1.76c-0.96-2.3-2.97-3.47-5.98-3.47c-1.46,0-2.72,0.29-3.72,0.92
			c-0.96,0.59-1.46,1.42-1.46,2.42c0,1.51,1.13,2.51,3.47,3.05l5.19,1.25c2.42,0.54,4.26,1.55,5.43,2.93s1.76,2.93,1.76,4.73
			c0,2.34-0.96,4.31-2.89,5.85C452.66,61.24,450.2,61.99,447.14,61.99L447.14,61.99z M472.23,61.57c-2.76,0-4.85-0.71-6.31-2.17
			c-1.54-1.7-2.32-3.94-2.17-6.23V39.46h-4.6v-4.52h4.6v-7.99h4.94v7.99h6.4v4.52h-6.4v13.38c0,2.84,1.17,4.26,3.51,4.26
			c0.92,0,1.67-0.17,2.26-0.42l1.67,4.18c-1.04,0.5-2.34,0.71-3.93,0.71L472.23,61.57L472.23,61.57z M489.42,61.99
			c-5.01,0.19-9.59-2.82-11.41-7.48l4.39-1.8c1.38,3.26,3.76,4.94,7.11,4.94c1.5,0,2.76-0.38,3.76-1.05
			c0.92-0.58,1.47-1.59,1.46-2.68c0-1.67-1.21-2.84-3.6-3.47l-5.27-1.25c-1.75-0.47-3.38-1.31-4.77-2.47
			c-1.48-1.15-2.32-2.94-2.26-4.81c0-2.34,1.04-4.18,3.09-5.64c2.14-1.47,4.68-2.23,7.27-2.17c2.34,0,4.39,0.54,6.23,1.59
			c1.8,1.04,3.09,2.51,3.89,4.52l-4.26,1.76c-0.96-2.3-2.97-3.47-5.98-3.47c-1.46,0-2.72,0.29-3.72,0.92
			c-1,0.59-1.46,1.42-1.46,2.42c0,1.51,1.13,2.51,3.47,3.05l5.18,1.25c2.42,0.54,4.27,1.55,5.44,2.93c1.17,1.38,1.76,2.93,1.76,4.73
			c0,2.34-0.96,4.31-2.89,5.85C494.94,61.24,492.47,61.99,489.42,61.99L489.42,61.99z M111.1,40.08c0-12.13,10.12-21.95,22.24-21.95
			c5.63-0.09,11.06,2.1,15.05,6.06l-4.27,4.18c-6.32-5.96-16.27-5.67-22.22,0.65c-2.8,2.97-4.33,6.9-4.29,10.98
			c0,8.82,6.9,15.93,15.72,15.93c4.15,0.17,8.18-1.42,11.08-4.39c1.67-1.67,2.84-4.18,3.26-7.53h-14.34v-5.98h20.2
			c0.21,1.09,0.33,2.34,0.33,3.76c0.18,5.17-1.68,10.2-5.18,14.01c-4,4.15-9.59,6.38-15.35,6.15
			C121.2,61.97,111.28,52.23,111.1,40.08L111.1,40.08z M169.93,34.02c7.69-0.14,14.03,5.98,14.17,13.67c0,0.14,0,0.28,0,0.42
			c0.12,7.69-6.02,14.02-13.71,14.13c-0.15,0-0.31,0-0.46,0c-7.69,0.12-14.02-6.02-14.13-13.71c0-0.14,0-0.28,0-0.42
			c-0.12-7.67,6-13.97,13.67-14.09C169.62,34.02,169.77,34.02,169.93,34.02z M169.93,56.64c4.26,0,7.99-3.51,7.99-8.57
			c0-5.1-3.72-8.57-7.94-8.57c-4.35,0-7.99,3.47-7.99,8.57C161.98,53.13,165.67,56.64,169.93,56.64z M200.87,34.02
			c7.69-0.12,14.02,6.02,14.13,13.71c0,0.13,0,0.25,0,0.38c0.12,7.69-6.02,14.02-13.71,14.13c-0.14,0-0.28,0-0.42,0
			c-7.69,0.14-14.04-5.98-14.17-13.67c0-0.15,0-0.31,0-0.46c-0.12-7.67,6-13.97,13.67-14.09C200.53,34.02,200.7,34.02,200.87,34.02z
			 M200.87,56.64c4.26,0,7.94-3.51,7.94-8.57c0-5.1-3.64-8.57-7.94-8.57c-4.31,0-7.99,3.47-7.99,8.57c0,5.06,3.72,8.57,7.94,8.57
			H200.87z M238.79,34.48h5.94v25.34c0,10.45-6.15,14.72-13.42,14.72c-5.5,0.03-10.46-3.28-12.54-8.36l5.44-2.26
			c0.92,2.3,3.26,5.02,7.07,5.02c4.6,0,7.53-2.93,7.53-8.28v-2.05h-0.21c-1.88,2.12-4.61,3.3-7.44,3.22
			c-7.59-0.25-13.6-6.5-13.55-14.09c0-7.94,6.48-14.18,13.55-14.18c3.35,0,6.06,1.51,7.44,3.18h0.21L238.79,34.48L238.79,34.48z
			 M231.69,56.26c4.18,0,7.53-3.56,7.53-8.53c0-4.98-3.35-8.57-7.53-8.57c-4.27,0-7.86,3.6-7.86,8.57
			C223.83,52.67,227.42,56.26,231.69,56.26z M248.96,61.28V19.8h6.15v41.48H248.96z M272.12,56.68c3.18,0,5.35-1.59,6.98-3.93
			l4.81,3.22c-2.63,3.93-7.06,6.29-11.79,6.27c-7.62,0.1-13.88-6-13.97-13.63c0-0.17,0-0.34,0-0.51c0-8.36,6.06-14.09,13.38-14.09
			c7.28,0,10.87,5.77,12.04,8.95l0.63,1.59l-18.9,7.82c1.46,2.8,3.68,4.26,6.86,4.26L272.12,56.68z M271.7,39.41
			c-3.22,0-7.61,2.8-7.44,8.24l12.63-5.23c-0.67-1.76-2.76-2.97-5.23-2.97L271.7,39.41z"/>
	</g>
</g>
</svg>
