<?xml version="1.0" encoding="utf-8"?>
<!-- Generator: Adobe Illustrator 26.3.1, SVG Export Plug-In . SVG Version: 6.00 Build 0)  -->
<svg version="1.1" id="Layer_1" xmlns="http://www.w3.org/2000/svg" xmlns:xlink="http://www.w3.org/1999/xlink" x="0px" y="0px"
	 viewBox="0 0 814.83 92.25" style="enable-background:new 0 0 814.83 92.25;" xml:space="preserve">
<style type="text/css">
	.st0{clip-path:url(#SVGID_00000041277274433993842520000004147899967291985561_);}
	.st1{fill:#343C40;}
	.st2{fill:#1ED760;}
	.st3{fill:#231F20;}
	
		.st4{clip-path:url(#SVGID_00000150788692283201778160000017302929128975036343_);fill:url(#SVGID_00000083806162243394020230000017296667316530463155_);}
	.st5{fill:#FAB911;}
	.st6{fill:#2D64AD;}
	.st7{fill:#527BBD;}
	.st8{fill:#E84436;}
	.st9{fill:#34A953;}
	.st10{fill:none;}
	.st11{fill:#3D4043;}
</style>
<g>
	<g>
		<defs>
			<path id="SVGID_00000136372626056842504810000016405894305586897539_" d="M1.31,55.61L0,67.39l1.31,11.78
				c0,0.65,0.65,0.65,0.65,0.65c0.65,0,0.65-0.65,0.65-0.65l1.96-11.78L2.62,55.61c0-0.65-0.65-0.65-0.65-0.65
				S1.31,54.96,1.31,55.61 M9.16,48.41L7.2,67.39l1.96,18.97c0,0.65,0.65,0.65,0.65,0.65c0.65,0,0.65-0.65,0.65-0.65l2.62-18.97
				l-2.62-18.97c0-0.65-0.65-0.65-0.65-0.65L9.16,48.41 M34.02,45.8l-1.31,21.59l1.31,22.9c0,0.65,0.65,1.31,1.31,1.31
				c0.65,0,1.31-0.65,1.31-1.31l2.62-22.9L37.29,45.8c0-0.65-0.65-1.31-1.31-1.31C34.67,44.49,34.02,45.14,34.02,45.8 M17.66,44.49
				l-1.96,22.9l1.96,21.59c0,0.65,0.65,1.31,1.31,1.31c0,0,0.65-0.65,0.65-1.31l1.96-21.59l-1.96-22.9c0-0.65-0.65-1.31-1.31-1.31
				C18.32,43.83,17.66,43.83,17.66,44.49 M25.52,43.83l-1.96,23.55l1.96,22.24c0,0.65,0.65,1.31,1.31,1.31
				c0.65,0,1.31-0.65,1.31-1.31l1.96-22.24l-1.96-23.55c0-0.65-0.65-1.31-1.31-1.31C26.17,42.53,26.17,43.18,25.52,43.83
				 M42.53,32.06l-1.96,35.33l1.96,22.9c0,0.65,0.65,1.31,1.31,1.31c1.31,0,1.96-0.65,1.96-1.31l1.96-22.9L45.8,32.06
				c0-0.65-0.65-1.31-1.31-1.31C43.18,30.75,42.53,31.4,42.53,32.06 M51.03,24.21l-1.31,43.18l1.31,22.9c0,1.31,0.65,1.96,1.96,1.96
				c0.65,0,1.96-0.65,1.96-1.96l1.96-22.9l-1.96-43.18c0-1.31-0.65-1.96-1.96-1.96C51.69,22.24,51.03,22.9,51.03,24.21 M454.7,21.59
				v37.95c-0.65-1.31-2.62-4.58-3.93-6.54l-20.94-31.4h-11.12v59.54h11.78V41.87c0.65,1.31,2.62,4.58,3.93,6.54l21.59,32.71h10.47
				V21.59L454.7,21.59z M493.95,33.37h6.54c12.43,0,17.66,5.89,17.66,18.32c0,11.12-5.89,18.32-18.32,18.32h-5.89L493.95,33.37z
				 M482.18,81.13h17.66c15.05,0,30.75-8.51,30.75-29.44c0-21.59-12.43-29.44-29.44-29.44h-18.97v-0.65L482.18,81.13z M599.29,21.59
				v59.54h35.98V69.35h-23.55V21.59L599.29,21.59z M778.55,33.37h6.54c12.43,0,17.66,5.89,17.66,18.32
				c0,11.12-5.89,18.32-18.32,18.32h-5.89L778.55,33.37z M766.77,81.13h17.66c13.08,0,26.82-6.54,30.1-22.24V43.83
				c-2.62-15.7-13.74-21.59-28.79-21.59h-18.97v-0.65L766.77,81.13z M238.8,38.6c0,11.78,7.85,15.05,18.32,17.66
				c11.12,2.62,13.08,3.93,13.08,7.85c0,4.58-3.27,6.54-10.47,6.54c-5.89,0-11.12-1.96-15.05-6.54l-8.51,7.85
				c4.58,6.54,13.08,11.12,22.9,11.12c16.36,0,23.55-7.85,23.55-18.97c0-13.08-10.47-16.36-19.63-18.32
				c-9.16-1.96-11.78-3.27-11.78-7.2c0-2.62,1.96-5.23,8.51-5.23c5.23,0,9.81,1.96,13.74,5.89l8.51-8.51
				c-5.89-5.89-12.43-9.16-21.59-9.16h-1.96C247.3,21.59,238.8,28.13,238.8,38.6 M304.22,51.69c0-10.47,3.93-18.97,13.74-18.97
				s13.74,8.51,13.74,18.97s-3.93,18.97-13.74,18.97S304.22,62.15,304.22,51.69 M291.79,51.69c0,18.32,9.81,30.75,25.52,30.75
				c16.36,0,26.17-12.43,26.17-30.75s-9.81-30.75-26.17-30.75C301.61,20.94,291.79,33.37,291.79,51.69 M391.89,20.94v34.02
				c0,9.81-4.58,15.7-12.43,15.7c-7.85,0-12.43-5.89-12.43-15.7V21.59h-11.78v33.37c0,17.01,9.81,26.82,24.21,26.82
				c15.05,0,24.21-9.81,24.21-27.48V20.94L391.89,20.94z M540.4,51.69c0,18.97,10.47,30.75,26.17,30.75
				c11.12,0,17.66-5.23,22.24-13.74L579,62.81c-3.27,5.23-6.54,7.85-11.78,7.85c-9.16,0-14.39-7.85-14.39-18.97
				s5.23-18.97,13.74-18.97c5.23,0,8.51,2.62,11.12,6.54l11.12-5.23c-3.93-7.85-10.47-13.08-21.59-13.08
				C551.53,20.94,540.4,33.37,540.4,51.69 M652.93,51.69c0-10.47,3.93-18.97,13.74-18.97c9.81,0,13.74,8.51,13.74,18.97
				s-3.93,18.97-13.74,18.97C656.86,70.66,652.93,62.15,652.93,51.69 M640.5,51.69c0,18.32,9.81,30.75,25.52,30.75
				c16.36,0,25.52-12.43,25.52-30.75s-9.81-30.75-25.52-30.75C650.32,20.94,640.5,33.37,640.5,51.69 M739.95,20.94v34.02
				c0,9.81-4.58,15.7-12.43,15.7c-7.85,0-12.43-5.89-12.43-15.7V21.59h-11.78v33.37c0,17.01,9.81,26.82,24.21,26.82
				c15.05,0,24.21-9.81,24.21-27.48V20.94L739.95,20.94z M85.71,22.24L84.4,67.39l1.31,21.59c0,1.31,1.31,2.62,2.62,2.62
				s2.62-1.31,2.62-2.62l1.31-21.59l-1.31-45.8c0-1.31-1.31-2.62-2.62-2.62C86.36,19.63,85.71,20.28,85.71,22.24 M59.54,20.28
				l-1.31,47.11l1.31,22.24c0,1.31,0.65,1.96,1.96,1.96c1.31,0,1.96-0.65,1.96-1.96l1.31-22.24l-1.31-47.11
				c0-1.31-0.65-1.96-1.96-1.96C60.19,18.32,59.54,19.63,59.54,20.28 M76.55,20.28l-1.31,47.11l1.31,22.24
				c0,1.31,1.31,2.62,2.62,2.62s2.62-1.31,2.62-2.62l1.31-22.24l-1.31-47.11c0-1.31-1.31-2.62-2.62-2.62S76.55,18.97,76.55,20.28
				 M68.04,18.97l-1.31,48.41l1.31,22.24c0,1.31,0.65,1.96,1.96,1.96c1.31,0,1.96-0.65,1.96-1.96l1.31-22.24l-1.31-48.41
				c0-1.31-1.31-1.96-1.96-1.96S68.04,17.66,68.04,18.97 M94.21,13.08l-1.31,54.3l1.31,21.59c0,1.31,1.31,2.62,2.62,2.62
				c1.31,0,2.62-1.31,2.62-2.62l1.31-21.59l-1.31-54.3c0-1.31-1.31-2.62-2.62-2.62C95.52,10.47,94.21,11.78,94.21,13.08
				 M103.37,8.51l-1.31,58.88l1.31,21.59c0,1.31,1.31,2.62,2.62,2.62c1.31,0,2.62-1.31,2.62-2.62l1.31-21.59L108.6,8.51
				c0-1.31-1.31-2.62-2.62-2.62h-0.65C104.02,5.89,103.37,7.2,103.37,8.51 M113.84,2.62c-1.96,0.65-2.62,1.31-2.62,3.27v83.09
				c0,1.31,1.31,2.62,2.62,3.27h72.62c14.39,0,26.17-11.78,26.17-26.17s-11.78-26.17-26.17-26.17c-3.27,0-7.2,0.65-9.81,1.96
				C174.68,18.32,155.06,0,130.85,0h-3.27C123,0,118.42,1.31,113.84,2.62"/>
		</defs>
		<clipPath id="SVGID_00000161589279523529074470000017238900498931843984_">
			<use xlink:href="#SVGID_00000136372626056842504810000016405894305586897539_"  style="overflow:visible;"/>
		</clipPath>
		
			<linearGradient id="SVGID_00000055699196318581782080000017947073407305892281_" gradientUnits="userSpaceOnUse" x1="-1078.348" y1="642.8599" x2="-1077.4656" y2="642.8599" gradientTransform="matrix(2.821822e-14 460.8386 460.8386 -2.821822e-14 -295847.3438 496708.9375)">
			<stop  offset="0" style="stop-color:#F8A01D"/>
			<stop  offset="0.7128" style="stop-color:#F26E23"/>
			<stop  offset="1" style="stop-color:#EF5826"/>
		</linearGradient>
		
			<path style="clip-path:url(#SVGID_00000161589279523529074470000017238900498931843984_);fill:url(#SVGID_00000055699196318581782080000017947073407305892281_);" d="
			M0,0h814.53v92.25H0V0z"/>
	</g>
</g>
</svg>
