<svg width="140" height="24" viewBox="0 0 140 24" fill="none" xmlns="http://www.w3.org/2000/svg">
<g clip-path="url(#clip0_203_805)">
<path d="M22.6666 11.1867C22.9143 11.0021 23.0981 10.7446 23.1922 10.4503C23.2862 10.156 23.2858 9.83961 23.191 9.54556C23.0961 9.2515 22.9116 8.9945 22.6634 8.81058C22.4151 8.62667 22.1155 8.52506 21.8066 8.52002L15.8066 8.29335C15.7771 8.29131 15.7488 8.28079 15.7251 8.26305C15.7015 8.24531 15.6834 8.2211 15.6732 8.19335L13.5999 2.59335C13.4957 2.30844 13.3065 2.06243 13.0579 1.88861C12.8093 1.7148 12.5132 1.62158 12.2099 1.62158C11.9065 1.62158 11.6105 1.7148 11.3619 1.88861C11.1133 2.06243 10.9241 2.30844 10.8199 2.59335L8.75323 8.21335C8.74301 8.2411 8.72499 8.26531 8.70133 8.28305C8.67768 8.30079 8.64939 8.31131 8.61989 8.31335L2.61989 8.54002C2.31096 8.54506 2.01136 8.64667 1.76309 8.83058C1.51482 9.0145 1.33033 9.2715 1.2355 9.56556C1.14067 9.85962 1.14024 10.176 1.23428 10.4703C1.32833 10.7646 1.51212 11.0221 1.75989 11.2067L6.46656 14.9067C6.49012 14.9252 6.50772 14.9503 6.5172 14.9787C6.52668 15.0071 6.52762 15.0377 6.51989 15.0667L4.89989 20.8067C4.81595 21.099 4.82408 21.41 4.92319 21.6975C5.02229 21.9851 5.20756 22.2351 5.45379 22.4135C5.70002 22.592 5.99526 22.6903 6.29933 22.695C6.6034 22.6998 6.90156 22.6107 7.15323 22.44L12.1266 19.1067C12.1511 19.0898 12.1801 19.0807 12.2099 19.0807C12.2397 19.0807 12.2687 19.0898 12.2932 19.1067L17.2666 22.44C17.5148 22.6166 17.8119 22.7114 18.1166 22.7114C18.4212 22.7114 18.7183 22.6166 18.9666 22.44C19.2129 22.2632 19.3983 22.0144 19.4974 21.7279C19.5965 21.4414 19.6043 21.1312 19.5199 20.84L17.8866 15.08C17.8779 15.0511 17.8784 15.0202 17.8879 14.9916C17.8975 14.9629 17.9156 14.938 17.9399 14.92L22.6666 11.1867Z" fill="#05c07f"/>
</g>
<g clip-path="url(#clip1_203_805)">
<path d="M51.6666 11.1867C51.9143 11.0021 52.0981 10.7446 52.1922 10.4503C52.2862 10.156 52.2858 9.83961 52.191 9.54556C52.0961 9.2515 51.9116 8.9945 51.6634 8.81058C51.4151 8.62667 51.1155 8.52506 50.8066 8.52002L44.8066 8.29335C44.7771 8.29131 44.7488 8.28079 44.7251 8.26305C44.7015 8.24531 44.6834 8.2211 44.6732 8.19335L42.5999 2.59335C42.4957 2.30844 42.3065 2.06243 42.0579 1.88861C41.8093 1.7148 41.5132 1.62158 41.2099 1.62158C40.9065 1.62158 40.6105 1.7148 40.3619 1.88861C40.1133 2.06243 39.9241 2.30844 39.8199 2.59335L37.7532 8.21335C37.743 8.2411 37.725 8.26531 37.7013 8.28305C37.6777 8.30079 37.6494 8.31131 37.6199 8.31335L31.6199 8.54002C31.311 8.54506 31.0114 8.64667 30.7631 8.83058C30.5148 9.0145 30.3303 9.2715 30.2355 9.56556C30.1407 9.85962 30.1402 10.176 30.2343 10.4703C30.3283 10.7646 30.5121 11.0221 30.7599 11.2067L35.4666 14.9067C35.4901 14.9252 35.5077 14.9503 35.5172 14.9787C35.5267 15.0071 35.5276 15.0377 35.5199 15.0667L33.8999 20.8067C33.8159 21.099 33.8241 21.41 33.9232 21.6975C34.0223 21.9851 34.2076 22.2351 34.4538 22.4135C34.7 22.592 34.9953 22.6903 35.2993 22.695C35.6034 22.6998 35.9016 22.6107 36.1532 22.44L41.1266 19.1067C41.1511 19.0898 41.1801 19.0807 41.2099 19.0807C41.2397 19.0807 41.2687 19.0898 41.2932 19.1067L46.2666 22.44C46.5148 22.6166 46.8119 22.7114 47.1166 22.7114C47.4212 22.7114 47.7183 22.6166 47.9666 22.44C48.2129 22.2632 48.3983 22.0144 48.4974 21.7279C48.5965 21.4414 48.6043 21.1312 48.5199 20.84L46.8866 15.08C46.8779 15.0511 46.8784 15.0202 46.8879 14.9916C46.8975 14.9629 46.9156 14.938 46.9399 14.92L51.6666 11.1867Z" fill="#05c07f"/>
</g>
<g clip-path="url(#clip2_203_805)">
<path d="M80.6666 11.1867C80.9143 11.0021 81.0981 10.7446 81.1922 10.4503C81.2862 10.156 81.2858 9.83961 81.191 9.54556C81.0961 9.2515 80.9116 8.9945 80.6634 8.81058C80.4151 8.62667 80.1155 8.52506 79.8066 8.52002L73.8066 8.29335C73.7771 8.29131 73.7488 8.28079 73.7251 8.26305C73.7015 8.24531 73.6834 8.2211 73.6732 8.19335L71.5999 2.59335C71.4957 2.30844 71.3065 2.06243 71.0579 1.88861C70.8093 1.7148 70.5132 1.62158 70.2099 1.62158C69.9065 1.62158 69.6105 1.7148 69.3619 1.88861C69.1133 2.06243 68.9241 2.30844 68.8199 2.59335L66.7532 8.21335C66.743 8.2411 66.725 8.26531 66.7013 8.28305C66.6777 8.30079 66.6494 8.31131 66.6199 8.31335L60.6199 8.54002C60.311 8.54506 60.0114 8.64667 59.7631 8.83058C59.5148 9.0145 59.3303 9.2715 59.2355 9.56556C59.1407 9.85962 59.1402 10.176 59.2343 10.4703C59.3283 10.7646 59.5121 11.0221 59.7599 11.2067L64.4666 14.9067C64.4901 14.9252 64.5077 14.9503 64.5172 14.9787C64.5267 15.0071 64.5276 15.0377 64.5199 15.0667L62.8999 20.8067C62.8159 21.099 62.8241 21.41 62.9232 21.6975C63.0223 21.9851 63.2076 22.2351 63.4538 22.4135C63.7 22.592 63.9953 22.6903 64.2993 22.695C64.6034 22.6998 64.9016 22.6107 65.1532 22.44L70.1266 19.1067C70.1511 19.0898 70.1801 19.0807 70.2099 19.0807C70.2397 19.0807 70.2687 19.0898 70.2932 19.1067L75.2666 22.44C75.5148 22.6166 75.8119 22.7114 76.1166 22.7114C76.4212 22.7114 76.7183 22.6166 76.9666 22.44C77.2129 22.2632 77.3983 22.0144 77.4974 21.7279C77.5965 21.4414 77.6043 21.1312 77.5199 20.84L75.8866 15.08C75.8779 15.0511 75.8784 15.0202 75.8879 14.9916C75.8975 14.9629 75.9156 14.938 75.9399 14.92L80.6666 11.1867Z" fill="#05c07f"/>
</g>
<g clip-path="url(#clip3_203_805)">
<path d="M109.667 11.1867C109.914 11.0021 110.098 10.7446 110.192 10.4503C110.286 10.156 110.286 9.83961 110.191 9.54556C110.096 9.2515 109.912 8.9945 109.663 8.81058C109.415 8.62667 109.115 8.52506 108.807 8.52002L102.807 8.29335C102.777 8.29131 102.749 8.28079 102.725 8.26305C102.701 8.24531 102.683 8.2211 102.673 8.19335L100.6 2.59335C100.496 2.30844 100.307 2.06243 100.058 1.88861C99.8093 1.7148 99.5132 1.62158 99.2099 1.62158C98.9065 1.62158 98.6105 1.7148 98.3619 1.88861C98.1133 2.06243 97.9241 2.30844 97.8199 2.59335L95.7532 8.21335C95.743 8.2411 95.725 8.26531 95.7013 8.28305C95.6777 8.30079 95.6494 8.31131 95.6199 8.31335L89.6199 8.54002C89.311 8.54506 89.0114 8.64667 88.7631 8.83058C88.5148 9.0145 88.3303 9.2715 88.2355 9.56556C88.1407 9.85962 88.1402 10.176 88.2343 10.4703C88.3283 10.7646 88.5121 11.0221 88.7599 11.2067L93.4666 14.9067C93.4901 14.9252 93.5077 14.9503 93.5172 14.9787C93.5267 15.0071 93.5276 15.0377 93.5199 15.0667L91.8999 20.8067C91.8159 21.099 91.8241 21.41 91.9232 21.6975C92.0223 21.9851 92.2076 22.2351 92.4538 22.4135C92.7 22.592 92.9953 22.6903 93.2993 22.695C93.6034 22.6998 93.9016 22.6107 94.1532 22.44L99.1266 19.1067C99.1511 19.0898 99.1801 19.0807 99.2099 19.0807C99.2397 19.0807 99.2687 19.0898 99.2932 19.1067L104.267 22.44C104.515 22.6166 104.812 22.7114 105.117 22.7114C105.421 22.7114 105.718 22.6166 105.967 22.44C106.213 22.2632 106.398 22.0144 106.497 21.7279C106.596 21.4414 106.604 21.1312 106.52 20.84L104.887 15.08C104.878 15.0511 104.878 15.0202 104.888 14.9916C104.897 14.9629 104.916 14.938 104.94 14.92L109.667 11.1867Z" fill="#05c07f"/>
</g>
<g clip-path="url(#clip4_203_805)">
<path d="M138.069 10.3847L138.058 10.3932L138.047 10.4019L133.327 14.1301C133.146 14.2692 133.011 14.459 132.939 14.6754C132.866 14.8958 132.861 15.1334 132.926 15.3565L134.558 21.1128L134.558 21.1128L134.559 21.1186C134.586 21.2112 134.584 21.3099 134.552 21.4011C134.521 21.4915 134.463 21.5701 134.385 21.6263C134.307 21.6817 134.213 21.7114 134.117 21.7114C134.02 21.7114 133.925 21.6813 133.846 21.6251L133.835 21.6171L133.823 21.6093L128.853 18.278C128.663 18.1495 128.439 18.0807 128.21 18.0807C127.981 18.0807 127.757 18.1495 127.567 18.278L122.596 21.6093L122.596 21.6093L122.592 21.6125C122.51 21.6678 122.414 21.6967 122.315 21.6952C122.216 21.6936 122.121 21.6618 122.041 21.6039C121.961 21.546 121.901 21.4649 121.869 21.3717C121.836 21.2784 121.834 21.1775 121.861 21.0827L121.862 21.0783L123.482 15.3383L123.484 15.3313L123.486 15.3243C123.544 15.1065 123.537 14.8764 123.466 14.6625C123.395 14.4486 123.262 14.2603 123.085 14.1208L123.085 14.1205L118.378 10.4205L118.368 10.4125L118.357 10.4047C118.277 10.3449 118.217 10.2614 118.187 10.1659C118.156 10.0705 118.156 9.96786 118.187 9.87249C118.218 9.77712 118.278 9.69377 118.358 9.63412C118.439 9.57447 118.536 9.54152 118.636 9.53988L118.647 9.53971L118.658 9.5393L124.658 9.31264L124.673 9.31205L124.689 9.31098C124.911 9.29566 125.123 9.2165 125.301 9.08305C125.479 8.94959 125.615 8.76753 125.692 8.5588L125.692 8.55849L127.758 2.93849L127.759 2.93675C127.793 2.84435 127.854 2.76456 127.935 2.70819C128.015 2.65182 128.112 2.62158 128.21 2.62158C128.308 2.62158 128.404 2.65181 128.485 2.70819C128.566 2.76456 128.627 2.84435 128.661 2.93675L128.661 2.93675L128.662 2.94056L130.735 8.5388C130.735 8.5392 130.735 8.53959 130.735 8.53998C130.812 8.74822 130.948 8.92985 131.125 9.06305C131.303 9.1965 131.516 9.27566 131.738 9.29098L131.753 9.29205L131.769 9.29264L137.769 9.5193L137.78 9.51971L137.79 9.51988C137.89 9.52152 137.988 9.55447 138.068 9.61412C138.149 9.67377 138.208 9.75712 138.239 9.85249C138.27 9.94786 138.27 10.0505 138.24 10.1459C138.209 10.2414 138.15 10.3249 138.069 10.3847Z" fill="#05c07f" stroke="#05c07f" stroke-width="2"/>
</g>
<defs>
<clipPath id="clip0_203_805">
<rect width="24" height="24" fill="white"/>
</clipPath>
<clipPath id="clip1_203_805">
<rect width="24" height="24" fill="white" transform="translate(29)"/>
</clipPath>
<clipPath id="clip2_203_805">
<rect width="24" height="24" fill="white" transform="translate(58)"/>
</clipPath>
<clipPath id="clip3_203_805">
<rect width="24" height="24" fill="white" transform="translate(87)"/>
</clipPath>
<clipPath id="clip4_203_805">
<rect width="24" height="24" fill="white" transform="translate(116)"/>
</clipPath>
</defs>
</svg>
